<?xml version="1.0" encoding="UTF-8" standalone="no"?>
<svg
   viewBox="0 0 24 24"
   fill="currentColor"
   version="1.1"
   id="svg1"
   sodipodi:docname="stars.svg"
   inkscape:version="1.3.2 (091e20e, 2023-11-25, custom)"
   xmlns:inkscape="http://www.inkscape.org/namespaces/inkscape"
   xmlns:sodipodi="http://sodipodi.sourceforge.net/DTD/sodipodi-0.dtd"
   xmlns="http://www.w3.org/2000/svg"
   xmlns:svg="http://www.w3.org/2000/svg">
  <defs
     id="defs1" />
  <sodipodi:namedview
     id="namedview1"
     pagecolor="#ffffff"
     bordercolor="#666666"
     borderopacity="1.0"
     inkscape:showpageshadow="2"
     inkscape:pageopacity="0.0"
     inkscape:pagecheckerboard="0"
     inkscape:deskcolor="#d1d1d1"
     inkscape:zoom="23.666667"
     inkscape:cx="-1.7746479"
     inkscape:cy="22.267606"
     inkscape:window-width="2560"
     inkscape:window-height="1350"
     inkscape:window-x="-9"
     inkscape:window-y="-9"
     inkscape:window-maximized="1"
     inkscape:current-layer="svg1" />
  <path
     d="m 10.633947,17.423488 0.798261,-1.81483 c 0.710484,-1.614947 1.989192,-2.900549 3.584258,-3.603296 l 2.197308,-0.968084 c 0.698569,-0.307768 0.698569,-1.3164955 0,-1.6242725 L 15.085049,8.4751389 C 13.448961,7.7543171 12.147331,6.421128 11.449035,4.7510462 l -0.80863,-1.9340093 c -0.300075,-0.7177026 -1.2991831,-0.7177008 -1.5992491,0 L 8.2324987,4.7510282 C 7.5342028,6.421128 6.2325364,7.7543171 4.5964665,8.4751389 L 2.4677691,9.4130055 c -0.6986078,0.307777 -0.6986087,1.3165045 0,1.6242725 l 2.1973263,0.968084 c 1.5950563,0.702747 2.8737828,1.988349 3.5842126,3.603296 l 0.7983059,1.81483 c 0.306861,0.697511 1.2794361,0.697511 1.5863331,0 z m 7.992609,4.418624 0.224488,-0.51072 c 0.400222,-0.910574 1.121076,-1.635621 2.020483,-2.032226 l 0.691656,-0.305059 c 0.374116,-0.164944 0.374116,-0.704553 0,-0.869497 l -0.652907,-0.287996 c -0.922602,-0.406807 -1.656372,-1.158667 -2.049772,-2.100208 l -0.230491,-0.551888 c -0.160726,-0.384597 -0.696477,-0.384597 -0.857202,0 l -0.230492,0.551888 c -0.393308,0.941541 -1.127078,1.693401 -2.04968,2.100208 l -0.652998,0.287996 c -0.374026,0.164944 -0.374026,0.704553 0,0.869497 l 0.691655,0.305059 c 0.899499,0.396605 1.620262,1.121652 2.020483,2.032226 l 0.224579,0.51072 c 0.164273,0.373854 0.685835,0.373854 0.850198,0 z"
     id="path1"
     style="fill:#f7d000;fill-opacity:1;stroke:#ffffff;stroke-width:2.028;stroke-dasharray:none;stroke-opacity:0.42997542" />
</svg>
